<?xml version="1.0" standalone="no"?>
<!DOCTYPE svg PUBLIC "-//W3C//DTD SVG 20010904//EN"
 "http://www.w3.org/TR/2001/REC-SVG-20010904/DTD/svg10.dtd">
<svg version="1.0" xmlns="http://www.w3.org/2000/svg"
 width="200.000000pt" height="200.000000pt" viewBox="0 0 200.000000 200.000000"
 preserveAspectRatio="xMidYMid meet">
<metadata>
Created by potrace 1.11, written by Peter Selinger 2001-2013
</metadata>
<g transform="translate(0.000000,200.000000) scale(0.100000,-0.100000)"
fill="#000000" stroke="none">
<path d="M928 1040 l-256 -640 64 -40 c35 -22 67 -40 71 -40 5 0 118 276 252
613 135 336 250 626 257 643 l13 30 -64 37 c-35 20 -68 37 -73 37 -4 0 -123
-288 -264 -640z"/>
<path d="M278 1302 l-278 -187 0 -60 0 -60 279 -177 c153 -98 283 -178 288
-178 5 0 25 33 45 74 l37 74 -174 115 c-95 63 -196 122 -224 132 -28 9 -51 20
-51 23 0 4 28 19 63 33 45 19 334 207 375 244 4 4 -71 155 -78 155 -3 0 -130
-85 -282 -188z"/>
<path d="M1387 1418 c-25 -54 -32 -76 -23 -84 40 -40 336 -226 382 -240 30
-10 54 -20 54 -24 0 -3 -28 -18 -62 -33 -35 -15 -128 -73 -208 -128 -80 -55
-152 -104 -160 -109 -12 -7 -8 -21 23 -87 21 -43 42 -77 47 -76 5 2 133 86
285 189 l276 186 -3 61 -3 61 -279 178 c-154 98 -283 178 -287 178 -4 0 -23
-33 -42 -72z"/>
</g>
</svg>
